<svg width="360" height="108" viewBox="0 0 360 108" fill="none" xmlns="http://www.w3.org/2000/svg" role="img" aria-labelledby="logoTitle logoDesc">
  <title id="logoTitle">UNFRAMED logo</title>
  <desc id="logoDesc">Stylized frame icon with sun and horizon beside UNFRAMED wordmark.</desc>

  <g transform="translate(2 2)">
    <rect x="0" y="0" width="92" height="92" rx="20" fill="#FFF1DD"/>
    <rect x="10" y="10" width="72" height="72" rx="15" fill="#FFE6C4"/>
    <rect x="20" y="20" width="52" height="52" rx="10" fill="#F6A24B"/>
    <rect x="26" y="26" width="40" height="40" rx="8" fill="#111111"/>
    <circle cx="54" cy="40" r="7" fill="#F6A24B"/>
    <path d="M30 58L42 47L49 53L57 44L65 58H30Z" fill="#F6A24B"/>
  </g>

  <g transform="translate(110 18)" fill="#111111">
    <path d="M0 0H8V32C8 40 12.7 44.8 20.8 44.8C28.8 44.8 33.6 40 33.6 32V0H41.6V32.6C41.6 44.4 33.3 52.3 20.8 52.3C8.2 52.3 0 44.4 0 32.6V0Z"/>
    <path d="M53 0H60.8L87.5 37V0H95.6V51H88L61.1 13.8V51H53V0Z"/>
    <path d="M107.3 0H142.1V7.3H115.4V22.1H139.8V29.3H115.4V51H107.3V0Z"/>
    <path d="M149.8 0H171.7C184.5 0 192.2 7 192.2 18.7C192.2 27.8 187.4 33.6 179.2 35.8L194.7 51H184.2L170.2 37.1H157.9V51H149.8V0ZM171 30C178.3 30 183.9 25.8 183.9 18.8C183.9 11.8 178.5 7.4 170.9 7.4H157.9V30H171Z"/>
    <path d="M202.5 0H236.8V7.3H210.6V21.4H234.7V28.6H210.6V43.7H237.6V51H202.5V0Z"/>
  </g>

  <g transform="translate(110 69)">
    <text x="0" y="20" fill="#7F4C1A" font-family="'IBM Plex Mono', 'Courier New', monospace" font-size="15" letter-spacing="5">
      FINE ART PRINTS
    </text>
  </g>
</svg>
